<svg width="48" height="48" viewBox="0 0 48 48" fill="none" xmlns="http://www.w3.org/2000/svg">
<g filter="url(#filter0_d_235_646)">
<path d="M37.4366 30.8129C36.8402 29.9914 36.807 28.9071 36.807 26.6071V18.3929C36.807 16.1257 36.8402 15.0414 37.4366 14.1871C38.2982 13.0043 38.5301 12.61 38.497 12.0186C38.4307 11.3286 37.9668 11 36.9727 11H32.3006C30.5112 11 30.0804 11.5586 29.4509 13.0371C28.5562 15.0743 23.9503 25.8843 23.9503 25.8843C23.9503 25.8843 19.8414 14.7786 19.1456 12.9057C18.5491 11.3614 17.6213 11 16.2296 11H11.0604C10.0332 11 9.56929 11.3286 9.50302 12.0186C9.46989 12.61 9.70184 13.0043 10.5634 14.1871C11.1598 15.0414 11.2261 16.1257 11.2261 18.3929V26.6071C11.2261 28.9071 11.1598 29.9914 10.5634 30.8129C9.70184 31.9957 9.46989 32.4229 9.50302 33.0143C9.56929 33.7043 10.0332 34 11.0604 34H14.5397C15.5669 34 16.0308 33.7043 16.0971 33.0143C16.1302 32.4229 15.8651 31.9957 15.0036 30.8129C14.4071 29.9914 14.3409 28.9071 14.3409 26.6071V18.1957C16.5278 23.5186 19.0462 29.9586 19.4107 30.9114C20.0403 32.5543 20.7692 34 22.2935 34C24.1823 34 24.5467 32.62 25.5077 30.32C26.0379 29.0386 28.5231 23.0914 30.5112 18.36V26.6071C30.5112 28.9071 30.4781 29.9914 29.8816 30.8129C29.0201 31.9957 28.7881 32.4229 28.8213 33.0143C28.8876 33.7043 29.3515 34 30.3455 34H36.9727C37.9668 34 38.4307 33.7043 38.497 33.0143C38.5301 32.4229 38.2982 31.9957 37.4366 30.8129Z" fill="#FFFBEB"/>
</g>
<line x1="7.5" y1="38" x2="40.5" y2="38" stroke="#F59E0B" stroke-width="2"/>
<defs>
<filter id="filter0_d_235_646" x="9.5" y="11" width="30.5" height="24.5" filterUnits="userSpaceOnUse" color-interpolation-filters="sRGB">
<feFlood flood-opacity="0" result="BackgroundImageFix"/>
<feColorMatrix in="SourceAlpha" type="matrix" values="0 0 0 0 0 0 0 0 0 0 0 0 0 0 0 0 0 0 127 0" result="hardAlpha"/>
<feOffset dx="1.5" dy="1.5"/>
<feComposite in2="hardAlpha" operator="out"/>
<feColorMatrix type="matrix" values="0 0 0 0 0.270588 0 0 0 0 0.101961 0 0 0 0 0.0117647 0 0 0 1 0"/>
<feBlend mode="normal" in2="BackgroundImageFix" result="effect1_dropShadow_235_646"/>
<feBlend mode="normal" in="SourceGraphic" in2="effect1_dropShadow_235_646" result="shape"/>
</filter>
</defs>
</svg>
